<svg width="28" height="28" viewBox="0 0 28 28" fill="none" xmlns="http://www.w3.org/2000/svg">
<path id="Vector" d="M14.0003 8.32227C14.4609 8.32227 14.9025 8.1495 15.2282 7.84198C15.5539 7.53446 15.7368 7.11736 15.7368 6.68246C15.7368 6.24755 15.5539 5.83046 15.2282 5.52294C14.9025 5.21541 14.4609 5.04265 14.0003 5.04265C13.5398 5.04265 13.0981 5.21541 12.7724 5.52294C12.4468 5.83046 12.2638 6.24755 12.2638 6.68246C12.2638 7.11736 12.4468 7.53446 12.7724 7.84198C13.0981 8.1495 13.5398 8.32227 14.0003 8.32227ZM15.7044 0.57143C15.2227 0.201784 14.621 0 14.0003 0C13.3796 0 12.7779 0.201784 12.2962 0.57143L0.714981 9.45921C-0.692736 10.5437 0.117628 12.6951 1.93284 12.6951H2.42369V21.878C1.04839 22.5405 0.108366 23.8895 0.108366 25.4485V26.9068C0.108366 27.1967 0.230334 27.4748 0.447438 27.6798C0.664542 27.8848 0.958997 28 1.26603 28H26.7346C27.0416 28 27.3361 27.8848 27.5532 27.6798C27.7703 27.4748 27.8923 27.1967 27.8923 26.9068V25.4485C27.8923 23.8917 26.9522 22.5405 25.5769 21.878V12.6951H26.0678C27.883 12.6951 28.6934 10.5415 27.2833 9.45921L15.7067 0.569244L15.7044 0.57143ZM13.7595 2.26809C13.8283 2.21555 13.9141 2.18689 14.0026 2.18689C14.0911 2.18689 14.1769 2.21555 14.2457 2.26809L24.9773 10.5087H3.02104L13.7595 2.2659V2.26809ZM23.2616 21.4408H20.9463V12.6951H23.2616V21.4408ZM18.631 21.4408H15.158V12.6951H18.631V21.4408ZM12.8427 21.4408H9.36967V12.6951H12.8427V21.4408ZM23.6483 23.6272C24.7133 23.6272 25.5769 24.4427 25.5769 25.4485V25.8136H2.42369V25.4485C2.42369 24.4427 3.28731 23.6272 4.35236 23.6272H23.6483ZM7.05434 21.4408H4.73902V12.6951H7.05434V21.4408Z" fill="#1A7FBD"/>
</svg>
